<svg xmlns="http://www.w3.org/2000/svg" viewBox="0 0 378.95 367.17"><defs><style>.cls-1,.cls-2{fill:#fff;}.cls-2{font-size:42px;font-family:SitkaText, Sitka;letter-spacing:0.1em;}.cls-3{letter-spacing:0.14em;}.cls-4{letter-spacing:0.15em;}</style></defs><g id="Calque_2" data-name="Calque 2"><g id="Calque_1-2" data-name="Calque 1"><path class="cls-1" d="M64.16,150.73q-29.74,0-59.5,0c-2.58,0-4.76.38-4.66-3.69s2.47-3.14,4.64-3.15c12.16,0,24.33-.12,36.49,0,3.18,0,4.5-.84,5.47-4.1Q65,78,121.35,46.44c4.05-2.27,7.15-.59,7.6,4,.19,2-1.49,2-2.5,2.53C98,68.06,77,90.32,62.89,119.19a153.54,153.54,0,0,0-8,21c-.9,2.86-.38,3.86,2.78,3.79,7.33-.17,14.68-.26,22,.06,3.68.16,5.09-1.29,6.41-4.55,15.09-37.32,42.14-61.4,81.22-71.06,55.59-13.74,112.86,16.68,133.89,70.71,1.47,3.79,3.13,5.17,7.13,4.89a118.36,118.36,0,0,1,16,0c4.53.29,4.88-1.55,3.76-5.19-7.63-24.7-20.63-46.07-39.53-63.77-9.16-8.57-19.11-16.14-30.43-21.62-4-2-2.46-3.87-1.37-6.56,1.55-3.83,3.48-1.71,5.38-.67C299.85,67,324.84,98,336.41,139.62c.92,3.31,2.22,4.46,5.72,4.38,11-.25,22-.05,33-.14,2.56,0,3.87.28,3.83,3.46s-1.34,3.45-3.9,3.45q-56.25-.09-112.5,0c-2.69,0-4-.94-5.36-3.25-14.07-24.32-35.25-37.54-63.33-37.61s-49.34,13.06-63.53,37.3c-1.58,2.69-3.11,3.59-6.18,3.57C104.16,150.64,84.16,150.72,64.16,150.73Z"/><path class="cls-1" d="M314.79,214.26q29.74,0,59.5,0c2.58,0,4.76-.39,4.65,3.68s-2.46,3.15-4.63,3.15c-12.16,0-24.33.13-36.49,0-3.19,0-4.5.83-5.47,4.1Q314,287,257.6,318.55c-4.05,2.26-7.15.58-7.6-3.95-.2-2,1.49-2,2.5-2.53,28.44-15.15,49.45-37.41,63.56-66.28a152.07,152.07,0,0,0,8-20.95c.91-2.86.39-3.87-2.78-3.79-7.32.17-14.67.26-22-.06-3.68-.16-5.09,1.29-6.41,4.55-15.1,37.32-42.14,61.4-81.22,71C156.1,310.34,98.83,279.92,77.8,225.89c-1.47-3.79-3.14-5.17-7.13-4.9a120,120,0,0,1-16,0c-4.53-.3-4.88,1.54-3.76,5.18C58.56,250.9,71.56,272.27,90.46,290c9.16,8.58,19.11,16.15,30.42,21.63,4.05,2,2.47,3.87,1.38,6.56-1.55,3.83-3.48,1.71-5.38.66C79.1,298,54.11,267,42.54,225.37c-.92-3.32-2.22-4.46-5.72-4.38-11,.25-22,0-33,.14-2.56,0-3.87-.28-3.83-3.46s1.34-3.46,3.9-3.45q56.25.08,112.49,0c2.7,0,4,.94,5.37,3.26C135.83,241.77,157,255,185.09,255.06s49.34-13.07,63.53-37.31c1.57-2.69,3.11-3.59,6.17-3.56C274.79,214.34,294.79,214.27,314.79,214.26Z"/><path class="cls-1" d="M128.3,295.45c39.82,19.51,78.89,19.54,118.83.13-1.54,5.1-2.77,9.33-4.08,13.53-5.59,17.93-11.28,35.82-16.72,53.79-1,3.26-2.41,4.3-5.86,4.27q-34.47-.27-68.92,0c-3.22,0-4.51-.88-5.35-4.14C140.48,340.81,134.5,318.7,128.3,295.45Z"/><path class="cls-1" d="M134.23,71.6c3.51-13.35,6.83-26,10.17-38.64,2.6-9.81,5.31-19.59,7.77-29.44C152.81,1,153.81,0,156.54.05c9.32.16,18.66.23,28,0,3.52-.1,4.08,1.29,4,4.31-.17,7,0,14-.07,21,0,3.53.93,6.64,4.93,6.78,4.31.15,5.45-3,5.43-6.77,0-7,.12-14-.06-21-.07-3.05.48-4.44,4.05-4.31,8.16.3,16.33.12,24.5.06,2.11,0,3.59.12,4.39,2.73,6.77,22.12,13.72,44.17,20.6,66.25a15.14,15.14,0,0,1,.25,2.2C213.14,52.14,174,52.07,134.23,71.6Z"/><text class="cls-2" transform="translate(49.72 195.14)">W<tspan class="cls-3" x="45.49" y="0">at</tspan><tspan class="cls-4" x="95.85" y="0">c</tspan><tspan class="cls-3" x="122.23" y="0">h Time</tspan></text></g></g></svg>